<svg width="20" height="20" viewBox="0 0 20 20" fill="none" xmlns="http://www.w3.org/2000/svg">
<path d="M17.7645 5.95108L17.3532 5.23725C17.0421 4.69739 16.8865 4.42746 16.6219 4.31982C16.3573 4.21218 16.0579 4.29712 15.4593 4.46699L14.4425 4.7534C14.0603 4.84153 13.6593 4.79154 13.3104 4.61225L13.0297 4.45027C12.7304 4.25861 12.5003 3.97603 12.3729 3.64387L12.0946 2.81272C11.9116 2.2627 11.8201 1.98769 11.6023 1.83039C11.3845 1.6731 11.0951 1.6731 10.5165 1.6731L9.58753 1.6731C9.0089 1.6731 8.71958 1.6731 8.50177 1.83039C8.28396 1.98769 8.19247 2.2627 8.00949 2.81272L7.73119 3.64387C7.60379 3.97603 7.37363 4.25861 7.07439 4.45027L6.79366 4.61225C6.4447 4.79154 6.04374 4.84153 5.66157 4.7534L4.64471 4.46699C4.0461 4.29712 3.74679 4.21218 3.48214 4.31982C3.2175 4.42746 3.06196 4.69739 2.75088 5.23725L2.33956 5.95108C2.04797 6.45712 1.90217 6.71014 1.93047 6.97949C1.95876 7.24884 2.15394 7.4659 2.5443 7.90002L3.4035 8.86061C3.6135 9.12646 3.76259 9.58976 3.76259 10.0063C3.76259 10.4231 3.61355 10.8863 3.40352 11.1522L2.54431 12.1128C2.15395 12.5469 1.95877 12.7639 1.93047 13.0333C1.90217 13.3026 2.04797 13.5557 2.33956 14.0617L2.75087 14.7755C3.06194 15.3154 3.2175 15.5853 3.48214 15.693C3.7468 15.8006 4.04611 15.7157 4.64472 15.5458L5.66154 15.2594C6.04377 15.1712 6.44481 15.2212 6.79381 15.4006L7.0745 15.5626C7.37367 15.7542 7.60379 16.0368 7.73117 16.3689L8.00949 17.2001C8.19247 17.7502 8.28396 18.0252 8.50177 18.1825C8.71958 18.3398 9.0089 18.3398 9.58753 18.3398H10.5165C11.0951 18.3398 11.3845 18.3398 11.6023 18.1825C11.8201 18.0252 11.9116 17.7502 12.0946 17.2001L12.3729 16.3689C12.5003 16.0368 12.7304 15.7542 13.0295 15.5626L13.3102 15.4006C13.6592 15.2212 14.0603 15.1712 14.4425 15.2594L15.4593 15.5458C16.0579 15.7157 16.3572 15.8006 16.6219 15.693C16.8865 15.5853 17.0421 15.3154 17.3532 14.7755L17.3532 14.7755L17.7645 14.0617C18.0561 13.5557 18.2019 13.3026 18.1736 13.0333C18.1453 12.7639 17.9501 12.5469 17.5597 12.1128L16.7005 11.1522C16.4905 10.8863 16.3415 10.4231 16.3415 10.0063C16.3415 9.58976 16.4905 9.12646 16.7005 8.86061L17.5597 7.90002C17.9501 7.4659 18.1453 7.24884 18.1736 6.97949C18.2019 6.71014 18.0561 6.45712 17.7645 5.95108Z" stroke="#FAFAFA" stroke-width="1.5" stroke-linecap="round"/>
<path d="M7.08325 13.3333C7.66544 12.3269 8.75361 11.6498 9.99992 11.6498C11.2462 11.6498 12.3344 12.3269 12.9166 13.3333M11.6666 7.91667C11.6666 8.83714 10.9204 9.58333 9.99994 9.58333C9.07947 9.58333 8.33327 8.83714 8.33327 7.91667C8.33327 6.99619 9.07947 6.25 9.99994 6.25C10.9204 6.25 11.6666 6.99619 11.6666 7.91667Z" stroke="#FAFAFA" stroke-width="1.5" stroke-linecap="round"/>
</svg>
