<svg width="20" height="21" viewBox="0 0 20 21" fill="none" xmlns="http://www.w3.org/2000/svg">
<path d="M4.43484 8.56878C6.44624 5.00966 7.45193 3.2301 8.83197 2.77202C9.59117 2.52 10.409 2.52 11.1682 2.77202C12.5482 3.2301 13.5539 5.00966 15.5653 8.56878C17.5767 12.1279 18.5824 13.9075 18.2807 15.3575C18.1148 16.1552 17.7059 16.8787 17.1126 17.4244C16.0343 18.4163 14.0229 18.4163 10.0001 18.4163C5.97729 18.4163 3.96589 18.4163 2.88755 17.4244C2.29431 16.8787 1.88541 16.1552 1.71943 15.3575C1.41774 13.9075 2.42344 12.1279 4.43484 8.56878Z" stroke="#DC2626" stroke-opacity="0.9" stroke-width="1.5"/>
<path d="M4.43484 8.56878C6.44624 5.00966 7.45193 3.2301 8.83197 2.77202C9.59117 2.52 10.409 2.52 11.1682 2.77202C12.5482 3.2301 13.5539 5.00966 15.5653 8.56878C17.5767 12.1279 18.5824 13.9075 18.2807 15.3575C18.1148 16.1552 17.7059 16.8787 17.1126 17.4244C16.0343 18.4163 14.0229 18.4163 10.0001 18.4163C5.97729 18.4163 3.96589 18.4163 2.88755 17.4244C2.29431 16.8787 1.88541 16.1552 1.71943 15.3575C1.41774 13.9075 2.42344 12.1279 4.43484 8.56878Z" stroke="#DC2626" stroke-opacity="0.9" stroke-width="1.5"/>
<path d="M10.2017 14.6667V11.3333C10.2017 10.9405 10.2017 10.7441 10.0797 10.622C9.95766 10.5 9.76125 10.5 9.36841 10.5" stroke="#DC2626" stroke-opacity="0.9" stroke-width="1.5" stroke-linecap="round" stroke-linejoin="round"/>
<path d="M10.2017 14.6667V11.3333C10.2017 10.9405 10.2017 10.7441 10.0797 10.622C9.95766 10.5 9.76125 10.5 9.36841 10.5" stroke="#DC2626" stroke-opacity="0.9" stroke-width="1.5" stroke-linecap="round" stroke-linejoin="round"/>
<path d="M9.99325 8H10.0007" stroke="#DC2626" stroke-opacity="0.9" stroke-width="2" stroke-linecap="round" stroke-linejoin="round"/>
<path d="M9.99325 8H10.0007" stroke="#DC2626" stroke-opacity="0.9" stroke-width="2" stroke-linecap="round" stroke-linejoin="round"/>
</svg>
