<svg width="20" height="20" viewBox="0 0 14 15" fill="none" xmlns="http://www.w3.org/2000/svg">
<g clip-path="url(#clip0_470_27677)">
<path d="M6.41699 8.08325H9.33366M4.66699 8.08325H4.67223M7.58366 10.4166H4.66699M9.33366 10.4166H9.32842" stroke="#18181B" stroke-width="1.5" stroke-linecap="round" stroke-linejoin="round"/>
<path d="M10.5 1.66675V2.83341M3.5 1.66675V2.83341" stroke="#18181B" stroke-width="1.5" stroke-linecap="round" stroke-linejoin="round"/>
<path d="M1.45801 7.64189C1.45801 5.10013 1.45801 3.82925 2.18841 3.03962C2.91881 2.25 4.09438 2.25 6.44551 2.25H7.55384C9.90497 2.25 11.0805 2.25 11.8109 3.03962C12.5413 3.82925 12.5413 5.10013 12.5413 7.64189V7.94144C12.5413 10.4832 12.5413 11.7541 11.8109 12.5437C11.0805 13.3333 9.90497 13.3333 7.55384 13.3333H6.44551C4.09438 13.3333 2.91881 13.3333 2.18841 12.5437C1.45801 11.7541 1.45801 10.4832 1.45801 7.94144V7.64189Z" stroke="#18181B" stroke-width="1.5" stroke-linecap="round" stroke-linejoin="round"/>
<path d="M1.75 5.16675H12.25" stroke="#18181B" stroke-width="1.5" stroke-linecap="round" stroke-linejoin="round"/>
</g>
<defs>
<clipPath id="clip0_470_27677">
<rect width="14" height="14" fill="white" transform="translate(0 0.5)"/>
</clipPath>
</defs>
</svg>
