<svg width="20" height="20" viewBox="0 0 20 20" fill="none" xmlns="http://www.w3.org/2000/svg">
    <path
        d="M12.6824 12.4402L13.2127 12.9706L13.2127 12.9706L12.6824 12.4402ZM13.3331 8.45883L12.5831 8.45562V8.45883H13.3331ZM12.7779 8.22768L13.3081 8.75813L13.3081 8.75813L12.7779 8.22768ZM11.2306 9.7743L10.7004 9.24386L10.7004 9.24386L11.2306 9.7743ZM9.8085 9.77421L10.3388 9.24384L9.8085 9.77421ZM7.14316 6.90079L7.67345 7.43116L7.67345 7.43116L7.14316 6.90079ZM11.1252 6.25015L11.1252 7.00016L11.1284 7.00015L11.1252 6.25015ZM11.3564 6.80532L11.8868 7.33563L11.8868 7.33562L11.3564 6.80532ZM9.80953 8.35231L9.27918 7.82201L9.27918 7.82201L9.80953 8.35231ZM2.13897 15.1636L2.6693 15.6939L2.66932 15.6939L2.13897 15.1636ZM4.41968 17.4443L4.95001 17.9747L4.95004 17.9746L4.41968 17.4443ZM6.41296 10.783L7.10519 11.0717L6.41296 10.783ZM8.18561 13.6779L8.71597 14.2081L8.18561 13.6779ZM8.79942 13.1703L9.08811 13.8626L8.79942 13.1703ZM9.60027 13.0913L9.60384 13.8413C10.3475 13.8378 11.0329 13.8203 11.6149 13.7183C12.2036 13.615 12.7715 13.4117 13.2127 12.9706L12.6824 12.4402L12.1521 11.9099C12.016 12.046 11.7901 12.1646 11.3557 12.2408C10.9145 12.3182 10.3475 12.3377 9.59671 12.3413L9.60027 13.0913ZM12.6824 12.4402L13.2127 12.9706C13.4002 12.7831 13.5849 12.5774 13.7288 12.3132C13.8758 12.0434 13.9566 11.7571 14.0043 11.4298C14.0923 10.8251 14.0831 9.92105 14.0831 8.45883H13.3331H12.5831C12.5831 10.0004 12.5877 10.7481 12.5199 11.2136C12.4897 11.4214 12.4501 11.5249 12.4115 11.5957C12.3698 11.6723 12.3036 11.7584 12.1521 11.9099L12.6824 12.4402ZM13.3331 8.45883L14.0831 8.46204C14.0872 7.50062 12.9255 7.01964 12.2477 7.69724L12.7779 8.22768L13.3081 8.75813C13.0409 9.02524 12.5815 8.83647 12.5831 8.45562L13.3331 8.45883ZM12.7779 8.22768L12.2477 7.69724L10.7004 9.24386L11.2306 9.7743L11.7608 10.3047L13.3081 8.75813L12.7779 8.22768ZM11.2306 9.7743L10.7004 9.24386C10.6005 9.34366 10.4386 9.34365 10.3388 9.24384L9.8085 9.77421L9.27822 10.3046C9.96376 10.99 11.0752 10.9901 11.7608 10.3047L11.2306 9.7743ZM6.49198 9.98228L7.24198 9.98585C7.24555 9.23553 7.2651 8.66859 7.34251 8.22746C7.41873 7.79301 7.53742 7.56717 7.67345 7.43116L7.14316 6.90079L6.61287 6.37042C6.1717 6.81151 5.96836 7.37961 5.86508 7.96823C5.76297 8.55016 5.74553 9.23542 5.74199 9.97871L6.49198 9.98228ZM7.14316 6.90079L7.67345 7.43116C7.82498 7.27966 7.91103 7.21346 7.98765 7.17174C8.05854 7.13314 8.16204 7.09362 8.36992 7.06337C8.83556 6.99559 9.58337 7.00015 11.1252 7.00015L11.1252 6.25015L11.1252 5.50015C9.66275 5.50015 8.75863 5.49099 8.15387 5.57901C7.82655 5.62665 7.54023 5.70741 7.27033 5.85438C7.00615 5.99822 6.80044 6.18288 6.61287 6.37042L7.14316 6.90079ZM11.1252 6.25015L11.1284 7.00015C10.7481 7.00178 10.5585 6.54263 10.8261 6.27502L11.3564 6.80532L11.8868 7.33562C12.5649 6.65742 12.083 5.49605 11.122 5.50016L11.1252 6.25015ZM11.3564 6.80532L10.8261 6.27501L9.27918 7.82201L9.80953 8.35231L10.3399 8.88262L11.8868 7.33563L11.3564 6.80532ZM9.80953 8.35231L9.27918 7.82201C8.59475 8.50651 8.59152 9.618 9.27822 10.3046L9.8085 9.77421L10.3388 9.24384C10.2401 9.14518 10.2391 8.98347 10.3399 8.88262L9.80953 8.35231ZM2.13897 17.4443L2.6693 16.914C2.3324 16.5771 2.3324 16.0309 2.6693 15.6939L2.13897 15.1636L1.60864 14.6333C0.685953 15.556 0.685953 17.052 1.60864 17.9746L2.13897 17.4443ZM4.41968 17.4443L3.88935 16.914C3.55244 17.2509 3.00621 17.2509 2.6693 16.914L2.13897 17.4443L1.60864 17.9746C2.53134 18.8973 4.02731 18.8973 4.95001 17.9747L4.41968 17.4443ZM8.18561 13.6779L7.65524 13.1476L3.88931 16.914L4.41968 17.4443L4.95004 17.9746L8.71597 14.2081L8.18561 13.6779ZM2.13897 15.1636L2.66932 15.6939L6.43592 11.9271L5.90558 11.3968L5.37523 10.8665L1.60863 14.6333L2.13897 15.1636ZM6.49198 9.98228L5.74199 9.97871C5.74096 10.1956 5.7399 10.3178 5.73262 10.4094C5.72628 10.4892 5.71781 10.5014 5.72073 10.4944L6.41296 10.783L7.10519 11.0717C7.25173 10.7203 7.24031 10.3358 7.24198 9.98585L6.49198 9.98228ZM5.90558 11.3968L6.43592 11.9271C6.68041 11.6826 6.95878 11.4228 7.10519 11.0717L6.41296 10.783L5.72073 10.4944C5.72073 10.4944 5.72064 10.4946 5.72016 10.4955C5.71966 10.4965 5.71823 10.499 5.71524 10.5036C5.70895 10.5132 5.69598 10.5312 5.6698 10.5616C5.61107 10.6299 5.52672 10.715 5.37523 10.8665L5.90558 11.3968ZM9.60027 13.0913L9.59671 12.3413C9.2467 12.343 8.8622 12.3316 8.51074 12.4781L8.79942 13.1703L9.08811 13.8626C9.08111 13.8655 9.09324 13.857 9.17308 13.8507C9.26466 13.8434 9.38687 13.8423 9.60384 13.8413L9.60027 13.0913ZM8.18561 13.6779L8.71597 14.2081C8.86747 14.0566 8.95253 13.9722 9.02086 13.9135C9.05132 13.8873 9.06932 13.8743 9.0789 13.8681C9.08344 13.8651 9.08602 13.8636 9.08696 13.8631C9.08784 13.8627 9.08809 13.8626 9.08811 13.8626L8.79942 13.1703L8.51074 12.4781C8.15958 12.6246 7.89975 12.903 7.65524 13.1476L8.18561 13.6779Z"
        fill="#3A3C41" />
    <path
        d="M12.6824 12.4402L13.2127 12.9706L13.2127 12.9706L12.6824 12.4402ZM13.3331 8.45883L12.5831 8.45562V8.45883H13.3331ZM12.7779 8.22768L13.3081 8.75813L13.3081 8.75813L12.7779 8.22768ZM11.2306 9.7743L10.7004 9.24386L10.7004 9.24386L11.2306 9.7743ZM9.8085 9.77421L10.3388 9.24384L9.8085 9.77421ZM7.14316 6.90079L7.67345 7.43116L7.67345 7.43116L7.14316 6.90079ZM11.1252 6.25015L11.1252 7.00016L11.1284 7.00015L11.1252 6.25015ZM11.3564 6.80532L11.8868 7.33563L11.8868 7.33562L11.3564 6.80532ZM9.80953 8.35231L9.27918 7.82201L9.27918 7.82201L9.80953 8.35231ZM2.13897 15.1636L2.6693 15.6939L2.66932 15.6939L2.13897 15.1636ZM4.41968 17.4443L4.95001 17.9747L4.95004 17.9746L4.41968 17.4443ZM6.41296 10.783L7.10519 11.0717L6.41296 10.783ZM8.18561 13.6779L8.71597 14.2081L8.18561 13.6779ZM8.79942 13.1703L9.08811 13.8626L8.79942 13.1703ZM9.60027 13.0913L9.60384 13.8413C10.3475 13.8378 11.0329 13.8203 11.6149 13.7183C12.2036 13.615 12.7715 13.4117 13.2127 12.9706L12.6824 12.4402L12.1521 11.9099C12.016 12.046 11.7901 12.1646 11.3557 12.2408C10.9145 12.3182 10.3475 12.3377 9.59671 12.3413L9.60027 13.0913ZM12.6824 12.4402L13.2127 12.9706C13.4002 12.7831 13.5849 12.5774 13.7288 12.3132C13.8758 12.0434 13.9566 11.7571 14.0043 11.4298C14.0923 10.8251 14.0831 9.92105 14.0831 8.45883H13.3331H12.5831C12.5831 10.0004 12.5877 10.7481 12.5199 11.2136C12.4897 11.4214 12.4501 11.5249 12.4115 11.5957C12.3698 11.6723 12.3036 11.7584 12.1521 11.9099L12.6824 12.4402ZM13.3331 8.45883L14.0831 8.46204C14.0872 7.50062 12.9255 7.01964 12.2477 7.69724L12.7779 8.22768L13.3081 8.75813C13.0409 9.02524 12.5815 8.83647 12.5831 8.45562L13.3331 8.45883ZM12.7779 8.22768L12.2477 7.69724L10.7004 9.24386L11.2306 9.7743L11.7608 10.3047L13.3081 8.75813L12.7779 8.22768ZM11.2306 9.7743L10.7004 9.24386C10.6005 9.34366 10.4386 9.34365 10.3388 9.24384L9.8085 9.77421L9.27822 10.3046C9.96376 10.99 11.0752 10.9901 11.7608 10.3047L11.2306 9.7743ZM6.49198 9.98228L7.24198 9.98585C7.24555 9.23553 7.2651 8.66859 7.34251 8.22746C7.41873 7.79301 7.53742 7.56717 7.67345 7.43116L7.14316 6.90079L6.61287 6.37042C6.1717 6.81151 5.96836 7.37961 5.86508 7.96823C5.76297 8.55016 5.74553 9.23542 5.74199 9.97871L6.49198 9.98228ZM7.14316 6.90079L7.67345 7.43116C7.82498 7.27966 7.91103 7.21346 7.98765 7.17174C8.05854 7.13314 8.16204 7.09362 8.36992 7.06337C8.83556 6.99559 9.58337 7.00015 11.1252 7.00015L11.1252 6.25015L11.1252 5.50015C9.66275 5.50015 8.75863 5.49099 8.15387 5.57901C7.82655 5.62665 7.54023 5.70741 7.27033 5.85438C7.00615 5.99822 6.80044 6.18288 6.61287 6.37042L7.14316 6.90079ZM11.1252 6.25015L11.1284 7.00015C10.7481 7.00178 10.5585 6.54263 10.8261 6.27502L11.3564 6.80532L11.8868 7.33562C12.5649 6.65742 12.083 5.49605 11.122 5.50016L11.1252 6.25015ZM11.3564 6.80532L10.8261 6.27501L9.27918 7.82201L9.80953 8.35231L10.3399 8.88262L11.8868 7.33563L11.3564 6.80532ZM9.80953 8.35231L9.27918 7.82201C8.59475 8.50651 8.59152 9.618 9.27822 10.3046L9.8085 9.77421L10.3388 9.24384C10.2401 9.14518 10.2391 8.98347 10.3399 8.88262L9.80953 8.35231ZM2.13897 17.4443L2.6693 16.914C2.3324 16.5771 2.3324 16.0309 2.6693 15.6939L2.13897 15.1636L1.60864 14.6333C0.685953 15.556 0.685953 17.052 1.60864 17.9746L2.13897 17.4443ZM4.41968 17.4443L3.88935 16.914C3.55244 17.2509 3.00621 17.2509 2.6693 16.914L2.13897 17.4443L1.60864 17.9746C2.53134 18.8973 4.02731 18.8973 4.95001 17.9747L4.41968 17.4443ZM8.18561 13.6779L7.65524 13.1476L3.88931 16.914L4.41968 17.4443L4.95004 17.9746L8.71597 14.2081L8.18561 13.6779ZM2.13897 15.1636L2.66932 15.6939L6.43592 11.9271L5.90558 11.3968L5.37523 10.8665L1.60863 14.6333L2.13897 15.1636ZM6.49198 9.98228L5.74199 9.97871C5.74096 10.1956 5.7399 10.3178 5.73262 10.4094C5.72628 10.4892 5.71781 10.5014 5.72073 10.4944L6.41296 10.783L7.10519 11.0717C7.25173 10.7203 7.24031 10.3358 7.24198 9.98585L6.49198 9.98228ZM5.90558 11.3968L6.43592 11.9271C6.68041 11.6826 6.95878 11.4228 7.10519 11.0717L6.41296 10.783L5.72073 10.4944C5.72073 10.4944 5.72064 10.4946 5.72016 10.4955C5.71966 10.4965 5.71823 10.499 5.71524 10.5036C5.70895 10.5132 5.69598 10.5312 5.6698 10.5616C5.61107 10.6299 5.52672 10.715 5.37523 10.8665L5.90558 11.3968ZM9.60027 13.0913L9.59671 12.3413C9.2467 12.343 8.8622 12.3316 8.51074 12.4781L8.79942 13.1703L9.08811 13.8626C9.08111 13.8655 9.09324 13.857 9.17308 13.8507C9.26466 13.8434 9.38687 13.8423 9.60384 13.8413L9.60027 13.0913ZM8.18561 13.6779L8.71597 14.2081C8.86747 14.0566 8.95253 13.9722 9.02086 13.9135C9.05132 13.8873 9.06932 13.8743 9.0789 13.8681C9.08344 13.8651 9.08602 13.8636 9.08696 13.8631C9.08784 13.8627 9.08809 13.8626 9.08811 13.8626L8.79942 13.1703L8.51074 12.4781C8.15958 12.6246 7.89975 12.903 7.65524 13.1476L8.18561 13.6779Z"
        fill="#3A3C41" fill-opacity="0.2" />
    <path
        d="M7.27543 17.9166C8.32232 16.1334 10.6825 15.8795 12.1034 17.1548C12.5116 17.5211 12.7157 17.7043 12.876 17.7216C13.0364 17.7389 13.2177 17.636 13.5804 17.43L14.7278 16.7786C15.0963 16.5694 15.2805 16.4648 15.3477 16.3177C15.415 16.1706 15.3594 15.8919 15.2483 15.3344C14.9472 13.8242 15.8718 12.2804 17.3494 11.7948C17.8787 11.6209 18.1434 11.5339 18.2384 11.4027C18.3334 11.2715 18.3334 11.0607 18.3334 10.639V9.36101C18.3334 8.93935 18.3334 8.72851 18.2384 8.59729C18.1434 8.46607 17.8787 8.37912 17.3494 8.20522C15.8715 7.71968 14.9462 6.17578 15.247 4.66562C15.3581 4.10804 15.4136 3.82925 15.3464 3.68221C15.2791 3.53517 15.0949 3.43057 14.7265 3.22138L13.5791 2.56995C13.2164 2.36402 13.0351 2.26106 12.8748 2.27835C12.7145 2.29564 12.5104 2.4788 12.1021 2.84513C10.9178 3.90769 9.08101 3.90773 7.89671 2.8452C7.4884 2.47888 7.28425 2.29572 7.12396 2.27843C6.96368 2.26115 6.78233 2.36411 6.41965 2.57003L5.2723 3.22146C4.90383 3.43067 4.71959 3.53527 4.65235 3.68234C4.58511 3.8294 4.64068 4.10816 4.75182 4.66568C5.05284 6.17579 4.12828 7.71963 2.65068 8.2052C2.12137 8.37914 1.85671 8.46611 1.76171 8.59733C1.66671 8.72855 1.66671 8.93937 1.66671 9.36101V10.7899C1.66671 11.0999 1.66671 11.255 1.71752 11.3589C1.75237 11.4302 1.77632 11.4616 1.8358 11.5141C1.92252 11.5907 2.11697 11.6442 2.50587 11.7512V11.7512"
        stroke="#3A3C41" stroke-width="1.5" stroke-linecap="round" />
    <path
        d="M7.27543 17.9166C8.32232 16.1334 10.6825 15.8795 12.1034 17.1548C12.5116 17.5211 12.7157 17.7043 12.876 17.7216C13.0364 17.7389 13.2177 17.636 13.5804 17.43L14.7278 16.7786C15.0963 16.5694 15.2805 16.4648 15.3477 16.3177C15.415 16.1706 15.3594 15.8919 15.2483 15.3344C14.9472 13.8242 15.8718 12.2804 17.3494 11.7948C17.8787 11.6209 18.1434 11.5339 18.2384 11.4027C18.3334 11.2715 18.3334 11.0607 18.3334 10.639V9.36101C18.3334 8.93935 18.3334 8.72851 18.2384 8.59729C18.1434 8.46607 17.8787 8.37912 17.3494 8.20522C15.8715 7.71968 14.9462 6.17578 15.247 4.66562C15.3581 4.10804 15.4136 3.82925 15.3464 3.68221C15.2791 3.53517 15.0949 3.43057 14.7265 3.22138L13.5791 2.56995C13.2164 2.36402 13.0351 2.26106 12.8748 2.27835C12.7145 2.29564 12.5104 2.4788 12.1021 2.84513C10.9178 3.90769 9.08101 3.90773 7.89671 2.8452C7.4884 2.47888 7.28425 2.29572 7.12396 2.27843C6.96368 2.26115 6.78233 2.36411 6.41965 2.57003L5.2723 3.22146C4.90383 3.43067 4.71959 3.53527 4.65235 3.68234C4.58511 3.8294 4.64068 4.10816 4.75182 4.66568C5.05284 6.17579 4.12828 7.71963 2.65068 8.2052C2.12137 8.37914 1.85671 8.46611 1.76171 8.59733C1.66671 8.72855 1.66671 8.93937 1.66671 9.36101V10.7899C1.66671 11.0999 1.66671 11.255 1.71752 11.3589C1.75237 11.4302 1.77632 11.4616 1.8358 11.5141C1.92252 11.5907 2.11697 11.6442 2.50587 11.7512V11.7512"
        stroke="#3A3C41" stroke-opacity="0.2" stroke-width="1.5" stroke-linecap="round" />
</svg>