<svg width="20" height="20" viewBox="0 0 20 20" fill="none" xmlns="http://www.w3.org/2000/svg">
<g clip-path="url(#clip0_474_4466)">
<path d="M1.66663 5C1.66663 3.42865 1.66663 2.64297 2.15478 2.15482C2.64294 1.66666 3.42861 1.66666 4.99996 1.66666C6.57131 1.66666 7.35698 1.66666 7.84514 2.15482C8.33329 2.64297 8.33329 3.42865 8.33329 5V6.66666C8.33329 8.23801 8.33329 9.02369 7.84514 9.51184C7.35698 10 6.57131 10 4.99996 10C3.42861 10 2.64294 10 2.15478 9.51184C1.66663 9.02369 1.66663 8.23801 1.66663 6.66666V5Z" stroke="#3A3C41" stroke-width="1.5"/>
<path d="M1.66663 5C1.66663 3.42865 1.66663 2.64297 2.15478 2.15482C2.64294 1.66666 3.42861 1.66666 4.99996 1.66666C6.57131 1.66666 7.35698 1.66666 7.84514 2.15482C8.33329 2.64297 8.33329 3.42865 8.33329 5V6.66666C8.33329 8.23801 8.33329 9.02369 7.84514 9.51184C7.35698 10 6.57131 10 4.99996 10C3.42861 10 2.64294 10 2.15478 9.51184C1.66663 9.02369 1.66663 8.23801 1.66663 6.66666V5Z" stroke="black" stroke-opacity="0.2" stroke-width="1.5"/>
<path d="M1.66663 15.8333C1.66663 15.0568 1.66663 14.6685 1.79349 14.3622C1.96265 13.9538 2.28711 13.6294 2.69549 13.4602C3.00177 13.3333 3.39006 13.3333 4.16663 13.3333H5.83329C6.60986 13.3333 6.99815 13.3333 7.30443 13.4602C7.71281 13.6294 8.03727 13.9538 8.20643 14.3622C8.33329 14.6685 8.33329 15.0568 8.33329 15.8333C8.33329 16.6099 8.33329 16.9982 8.20643 17.3045C8.03727 17.7129 7.71281 18.0373 7.30443 18.2065C6.99815 18.3333 6.60986 18.3333 5.83329 18.3333H4.16663C3.39006 18.3333 3.00177 18.3333 2.69549 18.2065C2.28711 18.0373 1.96265 17.7129 1.79349 17.3045C1.66663 16.9982 1.66663 16.6099 1.66663 15.8333Z" stroke="#3A3C41" stroke-width="1.5"/>
<path d="M1.66663 15.8333C1.66663 15.0568 1.66663 14.6685 1.79349 14.3622C1.96265 13.9538 2.28711 13.6294 2.69549 13.4602C3.00177 13.3333 3.39006 13.3333 4.16663 13.3333H5.83329C6.60986 13.3333 6.99815 13.3333 7.30443 13.4602C7.71281 13.6294 8.03727 13.9538 8.20643 14.3622C8.33329 14.6685 8.33329 15.0568 8.33329 15.8333C8.33329 16.6099 8.33329 16.9982 8.20643 17.3045C8.03727 17.7129 7.71281 18.0373 7.30443 18.2065C6.99815 18.3333 6.60986 18.3333 5.83329 18.3333H4.16663C3.39006 18.3333 3.00177 18.3333 2.69549 18.2065C2.28711 18.0373 1.96265 17.7129 1.79349 17.3045C1.66663 16.9982 1.66663 16.6099 1.66663 15.8333Z" stroke="black" stroke-opacity="0.2" stroke-width="1.5"/>
<path d="M11.6666 13.3333C11.6666 11.762 11.6666 10.9763 12.1548 10.4882C12.6429 10 13.4286 10 15 10C16.5713 10 17.357 10 17.8451 10.4882C18.3333 10.9763 18.3333 11.762 18.3333 13.3333V15C18.3333 16.5713 18.3333 17.357 17.8451 17.8452C17.357 18.3333 16.5713 18.3333 15 18.3333C13.4286 18.3333 12.6429 18.3333 12.1548 17.8452C11.6666 17.357 11.6666 16.5713 11.6666 15V13.3333Z" stroke="#3A3C41" stroke-width="1.5"/>
<path d="M11.6666 13.3333C11.6666 11.762 11.6666 10.9763 12.1548 10.4882C12.6429 10 13.4286 10 15 10C16.5713 10 17.357 10 17.8451 10.4882C18.3333 10.9763 18.3333 11.762 18.3333 13.3333V15C18.3333 16.5713 18.3333 17.357 17.8451 17.8452C17.357 18.3333 16.5713 18.3333 15 18.3333C13.4286 18.3333 12.6429 18.3333 12.1548 17.8452C11.6666 17.357 11.6666 16.5713 11.6666 15V13.3333Z" stroke="black" stroke-opacity="0.2" stroke-width="1.5"/>
<path d="M11.6666 4.16666C11.6666 3.39009 11.6666 3.00181 11.7935 2.69553C11.9627 2.28714 12.2871 1.96269 12.6955 1.79353C13.0018 1.66666 13.3901 1.66666 14.1666 1.66666H15.8333C16.6099 1.66666 16.9981 1.66666 17.3044 1.79353C17.7128 1.96269 18.0373 2.28714 18.2064 2.69553C18.3333 3.00181 18.3333 3.39009 18.3333 4.16666C18.3333 4.94323 18.3333 5.33152 18.2064 5.6378C18.0373 6.04618 17.7128 6.37064 17.3044 6.5398C16.9981 6.66666 16.6099 6.66666 15.8333 6.66666H14.1666C13.3901 6.66666 13.0018 6.66666 12.6955 6.5398C12.2871 6.37064 11.9627 6.04618 11.7935 5.6378C11.6666 5.33152 11.6666 4.94323 11.6666 4.16666Z" stroke="#3A3C41" stroke-width="1.5"/>
<path d="M11.6666 4.16666C11.6666 3.39009 11.6666 3.00181 11.7935 2.69553C11.9627 2.28714 12.2871 1.96269 12.6955 1.79353C13.0018 1.66666 13.3901 1.66666 14.1666 1.66666H15.8333C16.6099 1.66666 16.9981 1.66666 17.3044 1.79353C17.7128 1.96269 18.0373 2.28714 18.2064 2.69553C18.3333 3.00181 18.3333 3.39009 18.3333 4.16666C18.3333 4.94323 18.3333 5.33152 18.2064 5.6378C18.0373 6.04618 17.7128 6.37064 17.3044 6.5398C16.9981 6.66666 16.6099 6.66666 15.8333 6.66666H14.1666C13.3901 6.66666 13.0018 6.66666 12.6955 6.5398C12.2871 6.37064 11.9627 6.04618 11.7935 5.6378C11.6666 5.33152 11.6666 4.94323 11.6666 4.16666Z" stroke="black" stroke-opacity="0.2" stroke-width="1.5"/>
</g>
<defs>
<clipPath id="clip0_474_4466">
<rect width="20" height="20" fill="white"/>
</clipPath>
</defs>
</svg>
