<svg width="14" height="15" viewBox="0 0 14 15" fill="none" xmlns="http://www.w3.org/2000/svg">
<g clip-path="url(#clip0_463_20647)">
<path d="M11.375 3.70825L11.0135 9.55622C10.9211 11.0503 10.8749 11.7974 10.5004 12.3345C10.3153 12.6001 10.0769 12.8242 9.80041 12.9926C9.24123 13.3333 8.49274 13.3333 6.99577 13.3333C5.49682 13.3333 4.74734 13.3333 4.18778 12.992C3.91113 12.8232 3.67266 12.5987 3.48757 12.3327C3.11318 11.7948 3.06801 11.0467 2.97769 9.55042L2.625 3.70825" stroke="#18181B" stroke-width="1.5" stroke-linecap="round"/>
<path d="M1.75 3.70841H12.25M9.36584 3.70841L8.96761 2.88692C8.70308 2.34123 8.57082 2.06839 8.34267 1.89822C8.29206 1.86047 8.23847 1.8269 8.18243 1.79782C7.92978 1.66675 7.62657 1.66675 7.02014 1.66675C6.39848 1.66675 6.08766 1.66675 5.83081 1.80332C5.77389 1.83359 5.71957 1.86852 5.66842 1.90776C5.43762 2.08482 5.3087 2.36765 5.05085 2.93331L4.69754 3.70841" stroke="#18181B" stroke-width="1.5" stroke-linecap="round"/>
<path d="M5.5415 10.125L5.5415 6.625" stroke="#18181B" stroke-width="1.5" stroke-linecap="round"/>
<path d="M8.4585 10.125L8.4585 6.625" stroke="#18181B" stroke-width="1.5" stroke-linecap="round"/>
</g>
<defs>
<clipPath id="clip0_463_20647">
<rect width="14" height="14" fill="white" transform="translate(0 0.5)"/>
</clipPath>
</defs>
</svg>
