<svg width="20" height="21" viewBox="0 0 20 21" fill="none" xmlns="http://www.w3.org/2000/svg">
<path d="M14.1216 3.14429C14.611 2.6549 14.8557 2.4102 15.1268 2.29319C15.5173 2.1246 15.9601 2.1246 16.3506 2.29319C16.6217 2.4102 16.8664 2.6549 17.3558 3.14429C17.8452 3.63368 18.0899 3.87838 18.2069 4.14946C18.3755 4.53999 18.3755 4.98278 18.2069 5.37332C18.0899 5.6444 17.8452 5.8891 17.3558 6.37849L13.1711 10.5631C12.1401 11.5941 11.6246 12.1096 10.979 12.4151C10.3334 12.7205 9.60786 12.7921 8.15686 12.9353L7.5 13.0001L7.56481 12.3432C7.70799 10.8922 7.77957 10.1667 8.08501 9.52108C8.39045 8.87543 8.90594 8.35994 9.93694 7.32895L14.1216 3.14429Z" stroke="#18181B" stroke-width="1.5" stroke-linejoin="round"/>
<path d="M4.99984 13H3.12484C2.31942 13 1.6665 13.6529 1.6665 14.4583C1.6665 15.2637 2.31942 15.9167 3.12484 15.9167H11.0415C11.8469 15.9167 12.4998 16.5696 12.4998 17.375C12.4998 18.1804 11.8469 18.8333 11.0415 18.8333H9.1665" stroke="#18181B" stroke-width="1.5" stroke-linecap="round" stroke-linejoin="round"/>
</svg>
