<!DOCTYPE svg PUBLIC "-//W3C//DTD SVG 1.1//EN" "http://www.w3.org/Graphics/SVG/1.1/DTD/svg11.dtd">

<svg version="1.1" id="Layer_1" xmlns="http://www.w3.org/2000/svg" xmlns:xlink="http://www.w3.org/1999/xlink" viewBox="0 0 512 512" xml:space="preserve" width="250px" height="250px" fill="#000000">

<g id="SVGRepo_bgCarrier" stroke-width="0"/>

<g id="SVGRepo_tracerCarrier" stroke-linecap="round" stroke-linejoin="round"/>

<g id="SVGRepo_iconCarrier"> <path style="fill:#d6d6d6;" d="M485.517,52.966H26.483C11.857,52.966,0,64.822,0,79.448v353.103 c0,14.626,11.857,26.483,26.483,26.483h459.034c14.626,0,26.483-11.857,26.483-26.483V79.448 C512,64.822,500.143,52.966,485.517,52.966z M494.345,432.552c0,4.875-3.953,8.828-8.828,8.828H26.483 c-4.875,0-8.828-3.953-8.828-8.828V114.759c0-4.875,3.953-8.828,8.828-8.828h459.034c4.875,0,8.828,3.953,8.828,8.828V432.552z"/> <circle style="fill:#FF6464;" cx="26.483" cy="79.448" r="8.828"/> <circle style="fill:#FFE182;" cx="52.966" cy="79.448" r="8.828"/> <circle style="fill:#A5D76E;" cx="79.448" cy="79.448" r="8.828"/> <g> <path style="fill:#EFF2FA;" d="M123.586,88.276h-8.828c-4.875,0-8.828-3.953-8.828-8.828l0,0c0-4.875,3.953-8.828,8.828-8.828 h8.828c4.875,0,8.828,3.953,8.828,8.828l0,0C132.414,84.323,128.461,88.276,123.586,88.276z"/> <path style="fill:#EFF2FA;" d="M158.897,88.276h-8.828c-4.875,0-8.828-3.953-8.828-8.828l0,0c0-4.875,3.953-8.828,8.828-8.828 h8.828c4.875,0,8.828,3.953,8.828,8.828l0,0C167.724,84.323,163.772,88.276,158.897,88.276z"/> <path style="fill:#EFF2FA;" d="M450.207,88.276h-8.828c-4.875,0-8.828-3.953-8.828-8.828l0,0c0-4.875,3.953-8.828,8.828-8.828 h8.828c4.875,0,8.828,3.953,8.828,8.828l0,0C459.034,84.323,455.082,88.276,450.207,88.276z"/> <path style="fill:#EFF2FA;" d="M485.517,88.276h-8.828c-4.875,0-8.828-3.953-8.828-8.828l0,0c0-4.875,3.953-8.828,8.828-8.828 h8.828c4.875,0,8.828,3.953,8.828,8.828l0,0C494.345,84.323,490.392,88.276,485.517,88.276z"/> <path style="fill:#EFF2FA;" d="M406.069,88.276H194.207c-4.875,0-8.828-3.953-8.828-8.828l0,0c0-4.875,3.953-8.828,8.828-8.828 h211.862c4.875,0,8.828,3.953,8.828,8.828l0,0C414.897,84.323,410.944,88.276,406.069,88.276z"/> </g> <rect x="277.005" y="304.586" transform="matrix(-0.7071 -0.7071 0.7071 -0.7071 283.2284 744.142)" style="fill:#464655;" width="37.452" height="17.653"/> <path style="fill:#707384;" d="M360.819,403.481l-62.504-62.51c-3.447-3.447-3.447-9.036,0-12.483l12.481-12.481 c3.447-3.447,9.037-3.447,12.484,0l62.504,62.51c3.447,3.447,3.447,9.036,0,12.483l-12.481,12.481 C369.855,406.93,364.266,406.93,360.819,403.481z"/> <path style="fill:#5B5D6E;" d="M225.103,335.482c-51.107,0-92.69-41.582-92.69-92.69s41.582-92.69,92.69-92.69 s92.69,41.582,92.69,92.69S276.211,335.482,225.103,335.482z M225.103,167.758c-41.375,0-75.034,33.66-75.034,75.034 s33.66,75.034,75.034,75.034s75.034-33.66,75.034-75.034S266.478,167.758,225.103,167.758z"/> <g> <circle style="fill:#2f3131;" cx="225.103" cy="242.759" r="75.034"/> <circle style="fill:#2f3131;" cx="225.103" cy="242.759" r="57.379"/> </g> <path style="fill:#484b4c;" d="M225.103,167.724c-41.44,0-75.034,33.593-75.034,75.034c0,41.44,33.594,75.034,75.034,75.034 s75.034-33.594,75.034-75.034C300.138,201.318,266.543,167.724,225.103,167.724z M225.103,300.138 c-31.69,0-57.379-25.689-57.379-57.379s25.689-57.379,57.379-57.379s57.379,25.689,57.379,57.379S256.793,300.138,225.103,300.138z"/> <circle style="fill:#d6d6d6;" cx="256" cy="211.862" r="22.069"/> <path style="fill:#5B5D6E;" d="M369.667,394.633l-62.504-62.51c-3.447-3.448-3.447-9.036,0-12.483l-8.849,8.849 c-3.448,3.447-3.448,9.036,0,12.483l62.504,62.51c3.447,3.448,9.036,3.448,12.484,0l8.847-8.849 C378.703,398.079,373.113,398.08,369.667,394.633z"/> </g>

</svg>