<svg width="20" height="20" viewBox="0 0 20 20" fill="none" xmlns="http://www.w3.org/2000/svg">
<path d="M9.16675 14.1666H5.83341C4.68064 14.1666 3.698 13.7603 2.8855 12.9478C2.073 12.1353 1.66675 11.1527 1.66675 9.99992C1.66675 8.84714 2.073 7.8645 2.8855 7.052C3.698 6.2395 4.68064 5.83325 5.83341 5.83325H9.16675V7.49992H5.83341C5.13897 7.49992 4.54869 7.74297 4.06258 8.22909C3.57647 8.7152 3.33341 9.30547 3.33341 9.99992C3.33341 10.6944 3.57647 11.2846 4.06258 11.7708C4.54869 12.2569 5.13897 12.4999 5.83341 12.4999H9.16675V14.1666ZM6.66675 10.8333V9.16659H13.3334V10.8333H6.66675ZM10.8334 14.1666V12.4999H14.1667C14.8612 12.4999 15.4515 12.2569 15.9376 11.7708C16.4237 11.2846 16.6667 10.6944 16.6667 9.99992C16.6667 9.30547 16.4237 8.7152 15.9376 8.22909C15.4515 7.74297 14.8612 7.49992 14.1667 7.49992H10.8334V5.83325H14.1667C15.3195 5.83325 16.3022 6.2395 17.1147 7.052C17.9272 7.8645 18.3334 8.84714 18.3334 9.99992C18.3334 11.1527 17.9272 12.1353 17.1147 12.9478C16.3022 13.7603 15.3195 14.1666 14.1667 14.1666H10.8334Z" fill="#FEF7FF"/>
</svg>
