<svg width="14" height="15" viewBox="0 0 14 15" fill="none" xmlns="http://www.w3.org/2000/svg">
<g clip-path="url(#clip0_463_18659)">
<path d="M8.45833 5.75008C8.45833 6.5555 7.80541 7.20841 7 7.20841C6.19458 7.20841 5.54166 6.5555 5.54166 5.75008C5.54166 4.94467 6.19458 4.29175 7 4.29175C7.80541 4.29175 8.45833 4.94467 8.45833 5.75008Z" stroke="#18181B" stroke-width="1.5"/>
<path d="M7.73348 10.7047C7.53673 10.8942 7.27376 11.0001 7.00009 11.0001C6.72641 11.0001 6.46344 10.8942 6.26669 10.7047C4.46501 8.95887 2.05052 7.00864 3.22799 4.17726C3.86464 2.64635 5.39288 1.66675 7.00009 1.66675C8.60729 1.66675 10.1355 2.64635 10.7722 4.17726C11.9482 7.00507 9.53961 8.96489 7.73348 10.7047Z" stroke="#18181B" stroke-width="1.5"/>
<path d="M10.5 12.1667C10.5 12.8111 8.933 13.3334 7 13.3334C5.067 13.3334 3.5 12.8111 3.5 12.1667" stroke="#18181B" stroke-width="1.5" stroke-linecap="round"/>
</g>
<defs>
<clipPath id="clip0_463_18659">
<rect width="14" height="14" fill="white" transform="translate(0 0.5)"/>
</clipPath>
</defs>
</svg>
