<svg width="20" height="20" viewBox="0 0 20 20" fill="none" xmlns="http://www.w3.org/2000/svg">
<path d="M12.4385 3.67585L6.8946 6.33709C6.46792 6.5419 6.01203 6.59321 5.54729 6.4891C5.24314 6.42097 5.09105 6.3869 4.96859 6.37291C3.44786 6.19925 2.5 7.40284 2.5 8.78688V9.54644C2.5 10.9305 3.44786 12.1341 4.96859 11.9604C5.09105 11.9464 5.24315 11.9123 5.54729 11.8442C6.01203 11.7401 6.46793 11.7914 6.8946 11.9962L12.4385 14.6575C13.7112 15.2684 14.3475 15.5738 15.057 15.3357C15.7664 15.0977 16.01 14.5868 16.497 13.565C17.8343 10.7593 17.8343 7.57403 16.497 4.76829C16.01 3.74654 15.7664 3.23566 15.057 2.99757C14.3475 2.75949 13.7112 3.06494 12.4385 3.67585Z" stroke="#18181B" stroke-width="1.5" stroke-linecap="round" stroke-linejoin="round"/>
<path d="M12.4385 3.67585L6.8946 6.33709C6.46792 6.5419 6.01203 6.59321 5.54729 6.4891C5.24314 6.42097 5.09105 6.3869 4.96859 6.37291C3.44786 6.19925 2.5 7.40284 2.5 8.78688V9.54644C2.5 10.9305 3.44786 12.1341 4.96859 11.9604C5.09105 11.9464 5.24315 11.9123 5.54729 11.8442C6.01203 11.7401 6.46793 11.7914 6.8946 11.9962L12.4385 14.6575C13.7112 15.2684 14.3475 15.5738 15.057 15.3357C15.7664 15.0977 16.01 14.5868 16.497 13.565C17.8343 10.7593 17.8343 7.57403 16.497 4.76829C16.01 3.74654 15.7664 3.23566 15.057 2.99757C14.3475 2.75949 13.7112 3.06494 12.4385 3.67585Z" stroke="black" stroke-opacity="0.2" stroke-width="1.5" stroke-linecap="round" stroke-linejoin="round"/>
<path d="M10.8334 14.1667V14.5833C10.8334 15.6534 10.8334 16.1884 10.6467 16.4905C10.3978 16.8933 9.94267 17.1208 9.47112 17.0783C9.11745 17.0464 8.68943 16.7254 7.83337 16.0833L6.83337 15.3333C6.01882 14.7224 5.83337 14.3515 5.83337 13.3333V12.0833" stroke="#18181B" stroke-width="1.5" stroke-linecap="round" stroke-linejoin="round"/>
<path d="M10.8334 14.1667V14.5833C10.8334 15.6534 10.8334 16.1884 10.6467 16.4905C10.3978 16.8933 9.94267 17.1208 9.47112 17.0783C9.11745 17.0464 8.68943 16.7254 7.83337 16.0833L6.83337 15.3333C6.01882 14.7224 5.83337 14.3515 5.83337 13.3333V12.0833" stroke="black" stroke-opacity="0.2" stroke-width="1.5" stroke-linecap="round" stroke-linejoin="round"/>
<path d="M6.25 11.6667V6.66666" stroke="#18181B" stroke-width="1.5" stroke-linecap="round" stroke-linejoin="round"/>
<path d="M6.25 11.6667V6.66666" stroke="black" stroke-opacity="0.2" stroke-width="1.5" stroke-linecap="round" stroke-linejoin="round"/>
</svg>
