<svg width="14" height="15" viewBox="0 0 14 15" fill="none" xmlns="http://www.w3.org/2000/svg">
<path d="M8.1665 11.2916C8.1665 11.2916 8.74984 11.2916 9.33317 12.4583C9.33317 12.4583 11.1861 9.54159 12.8332 8.95825" stroke="#18181B" stroke-width="1.5" stroke-linecap="round" stroke-linejoin="round"/>
<path d="M3.2085 7.20825H3.20326" stroke="#18181B" stroke-width="2" stroke-linecap="round" stroke-linejoin="round"/>
<path d="M6.4165 11.8751H6.12484C3.93233 11.8751 2.83608 11.8751 2.10419 11.2971C1.98712 11.2046 1.87886 11.1027 1.78064 10.9926C1.1665 10.3037 1.1665 9.27195 1.1665 7.20841C1.1665 5.14488 1.1665 4.11312 1.78064 3.42427C1.87886 3.3141 1.98712 3.2122 2.10419 3.11976C2.83608 2.54175 3.93233 2.54175 6.12484 2.54175H7.87484C10.0673 2.54175 11.1636 2.54175 11.8955 3.11976C12.0125 3.2122 12.1208 3.3141 12.219 3.42427C12.7724 4.0449 12.8271 4.94391 12.8326 6.62508V6.91675" stroke="#18181B" stroke-width="1.5" stroke-linecap="round" stroke-linejoin="round"/>
<path d="M8.45817 7.20833C8.45817 8.01375 7.80525 8.66667 6.99984 8.66667C6.19442 8.66667 5.5415 8.01375 5.5415 7.20833C5.5415 6.40292 6.19442 5.75 6.99984 5.75C7.80525 5.75 8.45817 6.40292 8.45817 7.20833Z" stroke="#18181B" stroke-width="1.5"/>
</svg>
