<svg width="20" height="20" viewBox="0 0 20 20" fill="none" xmlns="http://www.w3.org/2000/svg">
<path d="M2.08337 10C2.08337 6.26806 2.08337 4.40208 3.24274 3.24271C4.40211 2.08334 6.26809 2.08334 10 2.08334C13.732 2.08334 15.598 2.08334 16.7573 3.24271C17.9167 4.40208 17.9167 6.26806 17.9167 10C17.9167 13.732 17.9167 15.5979 16.7573 16.7573C15.598 17.9167 13.732 17.9167 10 17.9167C6.26809 17.9167 4.40211 17.9167 3.24274 16.7573C2.08337 15.5979 2.08337 13.732 2.08337 10Z" stroke="#3A3C41" stroke-width="1.5"/>
<path d="M9.16663 5.83334L14.1666 5.83334" stroke="#3A3C41" stroke-width="1.5" stroke-linecap="round"/>
<path d="M5.83337 5.83334L6.66671 5.83334" stroke="#3A3C41" stroke-width="1.5" stroke-linecap="round"/>
<path d="M5.83337 10L6.66671 10" stroke="#3A3C41" stroke-width="1.5" stroke-linecap="round"/>
<path d="M5.83337 14.1667L6.66671 14.1667" stroke="#3A3C41" stroke-width="1.5" stroke-linecap="round"/>
<path d="M9.16663 10L14.1666 10" stroke="#3A3C41" stroke-width="1.5" stroke-linecap="round"/>
<path d="M9.16663 14.1667L14.1666 14.1667" stroke="#3A3C41" stroke-width="1.5" stroke-linecap="round"/>
</svg>
