<svg width="20" height="20" viewBox="0 0 20 20" fill="none" xmlns="http://www.w3.org/2000/svg">
<g clip-path="url(#clip0_474_15232)">
<path d="M13.5902 3.65331C13.0977 3.65331 12.8514 3.65331 12.6271 3.57006C12.5959 3.5585 12.5652 3.54578 12.535 3.53192C12.3175 3.43214 12.1433 3.25801 11.7951 2.90974C10.9935 2.10816 10.5927 1.70737 10.0996 1.67041C10.0333 1.66544 9.96667 1.66544 9.90036 1.67041C9.40721 1.70737 9.00642 2.10816 8.20484 2.90974C7.85657 3.25801 7.68244 3.43214 7.46493 3.53192C7.43473 3.54578 7.40401 3.5585 7.37285 3.57006C7.1485 3.65331 6.90224 3.65331 6.40971 3.65331H6.31886C5.06228 3.65331 4.43399 3.65331 4.04362 4.04368C3.65324 4.43405 3.65324 5.06234 3.65324 6.31893V6.40978C3.65324 6.9023 3.65324 7.14856 3.57 7.37291C3.55844 7.40407 3.54572 7.43479 3.53186 7.46499C3.43208 7.6825 3.25795 7.85663 2.90968 8.2049C2.1081 9.00648 1.70731 9.40727 1.67035 9.90042C1.66538 9.96673 1.66538 10.0333 1.67035 10.0996C1.70731 10.5928 2.1081 10.9936 2.90968 11.7951C3.25795 12.1434 3.43208 12.3175 3.53186 12.535C3.54572 12.5653 3.55844 12.596 3.57 12.6271C3.65324 12.8515 3.65324 13.0977 3.65324 13.5903V13.6811C3.65324 14.9377 3.65324 15.566 4.04362 15.9564C4.43399 16.3467 5.06228 16.3467 6.31886 16.3467H6.40971C6.90224 16.3467 7.1485 16.3467 7.37285 16.43C7.40401 16.4415 7.43473 16.4543 7.46493 16.4681C7.68244 16.5679 7.85657 16.742 8.20484 17.0903C9.00642 17.8919 9.40721 18.2927 9.90036 18.3296C9.96667 18.3346 10.0333 18.3346 10.0996 18.3296C10.5927 18.2927 10.9935 17.8919 11.7951 17.0903C12.1433 16.742 12.3175 16.5679 12.535 16.4681C12.5652 16.4543 12.5959 16.4415 12.6271 16.43C12.8514 16.3467 13.0977 16.3467 13.5902 16.3467H13.6811C14.9376 16.3467 15.5659 16.3467 15.9563 15.9564C16.3467 15.566 16.3467 14.9377 16.3467 13.6811V13.5903C16.3467 13.0977 16.3467 12.8515 16.4299 12.6271C16.4415 12.596 16.4542 12.5653 16.4681 12.535C16.5678 12.3175 16.742 12.1434 17.0902 11.7951C17.8918 10.9936 18.2926 10.5928 18.3296 10.0996C18.3345 10.0333 18.3345 9.96673 18.3296 9.90042C18.2926 9.40727 17.8918 9.00648 17.0902 8.2049C16.742 7.85663 16.5678 7.6825 16.4681 7.465C16.4542 7.43479 16.4415 7.40407 16.4299 7.37291C16.3467 7.14856 16.3467 6.9023 16.3467 6.40978V6.31893C16.3467 5.06234 16.3467 4.43405 15.9563 4.04368C15.5659 3.65331 14.9376 3.65331 13.6811 3.65331H13.5902Z" stroke="#3A3C41" stroke-width="1.5"/>
<path d="M12.9167 9.99998C12.9167 11.6108 11.6109 12.9166 10 12.9166C8.38921 12.9166 7.08337 11.6108 7.08337 9.99998C7.08337 8.38915 8.38921 7.08331 10 7.08331C11.6109 7.08331 12.9167 8.38915 12.9167 9.99998Z" stroke="#3A3C41" stroke-width="1.5"/>
</g>
<defs>
<clipPath id="clip0_474_15232">
<rect width="20" height="20" fill="white"/>
</clipPath>
</defs>
</svg>
