<svg width="20" height="20px" viewBox="0 0 24 24" fill="none" xmlns="http://www.w3.org/2000/svg">
<path d="M8.16721 2.54175C10.3671 2.54175 11.467 2.54175 12.1505 3.26788C12.8339 3.99401 12.8339 5.1627 12.8339 7.50008C12.8339 9.83746 12.8339 11.0062 12.1505 11.7323C11.467 12.4584 10.3671 12.4584 8.16721 12.4584L5.83388 12.4584C3.63399 12.4584 2.53405 12.4584 1.85063 11.7323C1.16721 11.0062 1.16721 9.83746 1.16721 7.50008C1.16721 5.1627 1.16721 3.99401 1.85063 3.26788C2.53405 2.54175 3.63399 2.54175 5.83388 2.54175L8.16721 2.54175Z" stroke="#18181B" stroke-width="1.5" stroke-linejoin="round"/>
<path d="M2.91719 9.54176C3.85557 8.29497 6.0403 8.22691 7.00052 9.54176M5.97912 6.47933C5.97912 7.04312 5.52208 7.50016 4.95829 7.50016C4.3945 7.50016 3.93745 7.04312 3.93745 6.47933C3.93745 5.91554 4.3945 5.4585 4.95829 5.4585C5.52208 5.4585 5.97912 5.91554 5.97912 6.47933Z" stroke="#18181B" stroke-width="1.5" stroke-linecap="round"/>
<path d="M8.75054 6.04175L11.0839 6.04175" stroke="#18181B" stroke-width="1.5" stroke-linecap="round"/>
<path d="M8.75054 8.375H9.91721" stroke="#18181B" stroke-width="1.5" stroke-linecap="round"/>
</svg>
