<svg width="14" height="15" viewBox="0 0 14 15" fill="none" xmlns="http://www.w3.org/2000/svg">
<g clip-path="url(#clip0_463_18647)">
<path d="M7.29166 13.3334H3.84467C2.9432 13.3334 2.22618 12.8948 1.58238 12.2814C0.26446 11.0258 2.4283 10.0224 3.25358 9.53101C4.47905 8.80131 5.91315 8.53368 7.29166 8.72811C7.79188 8.79866 8.27903 8.93005 8.75 9.12228" stroke="#18181B" stroke-width="1.5" stroke-linecap="round" stroke-linejoin="round"/>
<path d="M9.625 4.29175C9.625 5.7415 8.44975 6.91675 7 6.91675C5.55025 6.91675 4.375 5.7415 4.375 4.29175C4.375 2.842 5.55025 1.66675 7 1.66675C8.44975 1.66675 9.625 2.842 9.625 4.29175Z" stroke="#18181B" stroke-width="1.5"/>
<path d="M10.7917 13.3333L10.7917 9.25M8.75 11.2917H12.8333" stroke="#18181B" stroke-width="1.5" stroke-linecap="round"/>
</g>
<defs>
<clipPath id="clip0_463_18647">
<rect width="14" height="14" fill="white" transform="translate(0 0.5)"/>
</clipPath>
</defs>
</svg>
