<svg width="20" height="20" viewBox="0 0 20 20" fill="none" xmlns="http://www.w3.org/2000/svg">
<g clip-path="url(#clip0_474_1366)">
<path d="M13.776 13.6333V12.4603C13.776 11.5617 14.5106 10.8333 15.4167 10.8333C15.8239 10.8333 16.1966 10.9805 16.4834 11.2241M14.8698 18.3333H15.9635C16.8147 18.3333 17.2403 18.3333 17.5625 18.1626C17.8168 18.0278 18.0252 17.8211 18.1611 17.5689C18.3333 17.2494 18.3333 16.8274 18.3333 15.9833C18.3333 15.1393 18.3333 14.7172 18.1611 14.3978C18.0252 14.1455 17.8168 13.9389 17.5625 13.8041C17.2403 13.6333 16.8147 13.6333 15.9635 13.6333H14.8698C14.0186 13.6333 13.593 13.6333 13.2709 13.8041C13.0165 13.9389 12.8082 14.1455 12.6722 14.3978C12.5 14.7172 12.5 15.1393 12.5 15.9833C12.5 16.8274 12.5 17.2494 12.6722 17.5689C12.8082 17.8211 13.0165 18.0278 13.2709 18.1626C13.593 18.3333 14.0186 18.3333 14.8698 18.3333Z" stroke="#3A3C41" stroke-width="1.5" stroke-linecap="round"/>
<path d="M13.776 13.6333V12.4603C13.776 11.5617 14.5106 10.8333 15.4167 10.8333C15.8239 10.8333 16.1966 10.9805 16.4834 11.2241M14.8698 18.3333H15.9635C16.8147 18.3333 17.2403 18.3333 17.5625 18.1626C17.8168 18.0278 18.0252 17.8211 18.1611 17.5689C18.3333 17.2494 18.3333 16.8274 18.3333 15.9833C18.3333 15.1393 18.3333 14.7172 18.1611 14.3978C18.0252 14.1455 17.8168 13.9389 17.5625 13.8041C17.2403 13.6333 16.8147 13.6333 15.9635 13.6333H14.8698C14.0186 13.6333 13.593 13.6333 13.2709 13.8041C13.0165 13.9389 12.8082 14.1455 12.6722 14.3978C12.5 14.7172 12.5 15.1393 12.5 15.9833C12.5 16.8274 12.5 17.2494 12.6722 17.5689C12.8082 17.8211 13.0165 18.0278 13.2709 18.1626C13.593 18.3333 14.0186 18.3333 14.8698 18.3333Z" stroke="black" stroke-opacity="0.2" stroke-width="1.5" stroke-linecap="round"/>
<path d="M10.4166 18.3333H5.49235C4.20454 18.3333 3.18022 17.7067 2.26051 16.8305C0.377763 15.0368 3.46896 13.6033 4.64794 12.9013C6.64728 11.7108 9.03538 11.3813 11.25 11.9126" stroke="#3A3C41" stroke-width="1.5" stroke-linecap="round" stroke-linejoin="round"/>
<path d="M10.4166 18.3333H5.49235C4.20454 18.3333 3.18022 17.7067 2.26051 16.8305C0.377763 15.0368 3.46896 13.6033 4.64794 12.9013C6.64728 11.7108 9.03538 11.3813 11.25 11.9126" stroke="black" stroke-opacity="0.2" stroke-width="1.5" stroke-linecap="round" stroke-linejoin="round"/>
<path d="M13.75 5.41666C13.75 7.48772 12.0711 9.16666 10 9.16666C7.92893 9.16666 6.25 7.48772 6.25 5.41666C6.25 3.34559 7.92893 1.66666 10 1.66666C12.0711 1.66666 13.75 3.34559 13.75 5.41666Z" stroke="#3A3C41" stroke-width="1.5"/>
<path d="M13.75 5.41666C13.75 7.48772 12.0711 9.16666 10 9.16666C7.92893 9.16666 6.25 7.48772 6.25 5.41666C6.25 3.34559 7.92893 1.66666 10 1.66666C12.0711 1.66666 13.75 3.34559 13.75 5.41666Z" stroke="black" stroke-opacity="0.2" stroke-width="1.5"/>
</g>
<defs>
<clipPath id="clip0_474_1366">
<rect width="20" height="20" fill="white"/>
</clipPath>
</defs>
</svg>
